<?xml version="1.0" standalone="no"?>
<!DOCTYPE svg PUBLIC "-//W3C//DTD SVG 20010904//EN"
 "http://www.w3.org/TR/2001/REC-SVG-20010904/DTD/svg10.dtd">
<svg version="1.0" xmlns="http://www.w3.org/2000/svg"
 width="512.000000pt" height="512.000000pt" viewBox="0 0 512.000000 512.000000"
 preserveAspectRatio="xMidYMid meet">
<metadata>
Created by potrace 1.14, written by Peter Selinger 2001-2017
</metadata>
<g transform="translate(0.000000,512.000000) scale(0.100000,-0.100000)"
fill="#000000" stroke="none">
<path d="M2200 5110 c-495 -50 -950 -217 -1350 -495 -125 -88 -357 -296 -455
-410 -342 -402 -550 -875 -610 -1390 -18 -155 -18 -485 0 -640 60 -515 268
-988 610 -1390 98 -114 330 -322 455 -410 400 -278 855 -445 1350 -495 155
-16 485 -16 640 0 495 50 950 217 1350 495 125 88 357 296 455 410 342 402
550 875 610 1390 18 155 18 485 0 640 -60 515 -268 988 -610 1390 -98 114
-330 322 -455 410 -397 276 -860 446 -1340 494 -142 14 -506 14 -650 1z m615
-1215 l0 -415 165 0 c185 0 255 -11 345 -55 141 -69 235 -210 260 -390 34
-248 -86 -455 -305 -525 -62 -20 -88 -21 -420 -24 l-355 -4 0 1192 c0 1099 1
1193 17 1210 15 17 29 18 128 14 l111 -4 49 -475z"/>
</g>
</svg>
